<svg xmlns="http://www.w3.org/2000/svg" xmlns:xlink="http://www.w3.org/1999/xlink" id="Layer_1" data-name="Layer 1" viewBox="0 0 24 24"><defs><style>.cls-1{fill:none}.cls-3{fill:#00b45a}</style><clipPath id="clip-path"><rect width="21.97" height="17.42" x="64.09" y="-34.75" class="cls-1"/></clipPath><clipPath id="clip-path-2"><path d="M16.87,58.75a4.68,4.68,0,1,1-4.67-4.67A4.67,4.67,0,0,1,16.87,58.75Zm5.91-2-3.1-.48a7.72,7.72,0,0,0-1.55-2.71l1.18-2.91-3.38-2-2,2.42a7.62,7.62,0,0,0-3.49,0l-2-2.42-3.38,2,1.18,2.9a7.92,7.92,0,0,0-1.55,2.7l-3.09.5v3.93l3.09.48a7.87,7.87,0,0,0,1.55,2.71l-1.18,2.9,3.38,2,2-2.42a7.62,7.62,0,0,0,3.49,0l2,2.42,3.38-2-1.18-2.9a7.72,7.72,0,0,0,1.55-2.71l3.1-.49Z" class="cls-1"/></clipPath></defs><title>account</title><path d="M0,0H24V24H0Z" class="cls-1"/><path d="M3,21H21V3H3ZM15,9a3,3,0,1,1-3-3A3,3,0,0,1,15,9ZM6,17c0-2,4-3.1,6-3.1S18,15,18,17v1H6Z" class="cls-3"/></svg>