<svg xmlns="http://www.w3.org/2000/svg" xmlns:xlink="http://www.w3.org/1999/xlink" id="Layer_1" data-name="Layer 1" viewBox="0 0 24 24"><defs><style>.cls-1{fill:none}.cls-2{fill:#fff}</style><clipPath id="clip-path"><rect width="21.97" height="17.42" x="32.77" y="3.29" class="cls-1"/></clipPath><clipPath id="clip-path-2"><path d="M-14.46,96.79a4.68,4.68,0,0,1-4.67,4.68,4.68,4.68,0,0,1-4.67-4.68,4.67,4.67,0,0,1,4.67-4.67A4.67,4.67,0,0,1-14.46,96.79Zm5.91-2-3.09-.47a7.87,7.87,0,0,0-1.55-2.71L-12,88.73l-3.37-2-2,2.43a7.58,7.58,0,0,0-3.48,0l-2-2.43-3.37,2,1.17,2.9a7.74,7.74,0,0,0-1.55,2.7l-3.09.49v3.94l3.09.48a7.92,7.92,0,0,0,1.55,2.7l-1.17,2.91,3.37,2,2-2.42a7.86,7.86,0,0,0,3.48,0l2,2.42,3.37-2-1.17-2.9a7.87,7.87,0,0,0,1.55-2.71l3.09-.49Z" class="cls-1"/></clipPath></defs><title>back_wallet</title><path d="M0,0H24V24H0Z" class="cls-1"/><path d="M12,4,10.59,5.41,16.17,11H4v2H16.17l-5.58,5.59L12,20l8-8Z" class="cls-2"/></svg>