<svg xmlns="http://www.w3.org/2000/svg" xmlns:svg="http://www.w3.org/2000/svg" id="svg40" width="245" height="96" version="1.1"><metadata id="metadata46"/><g id="g1431"><path id="path1320" d="m 74.453125,0 a 40,40 0 0 0 -1.857422,0.046875 l 0.263672,2.3769531 -3.564453,0.4003907 -0.03711,-2.2773438 a 40,40 0 0 0 -3.576171,0.5527344 l 0.677734,2.0996094 -3.46875,1.1074218 -0.517578,-2.1582031 a 40,40 0 0 0 -3.306641,1.0429687 l 0.998047,2.0488282 -0.273437,0.1308594 h 28.998046 l -0.189453,-0.083984 0.97461,-2.1875 A 40,40 0 0 0 86.458984,1.9628906 L 85.865234,4.2636719 82.337891,3.328125 82.941406,0.94726562 A 40,40 0 0 0 79.693359,0.42382812 L 79.480469,2.8398438 75.822266,2.5195312 76.046875,0.02734375 A 40,40 0 0 0 74.453125,0 Z m 18.431641,4.7226562 -0.306641,0.6484376 h 1.474609 A 40,40 0 0 0 92.884766,4.7226562 Z M 55.945312,4.7988281 A 40,40 0 0 0 54.78125,5.3710938 h 1.433594 z" style="fill:#c9c9cb;fill-opacity:1;stroke-width:34.1606"/><rect style="fill:none;fill-opacity:1;stroke:#c9c9cb;stroke-width:4.74206;stroke-miterlimit:4;stroke-dasharray:none;stroke-opacity:1" id="rect491" width="240.258" height="86.258" x="2.371" y="5.371" rx="8" ry="8"/><rect style="fill:none;stroke:#c9c9cb;stroke-width:1.85928;stroke-miterlimit:4;stroke-dasharray:none;stroke-opacity:1" id="rect493" width="104.141" height="62.141" x="14.436" y="17.447" rx="4" ry="4"/><rect style="fill:none;stroke:#c9c9cb;stroke-width:2;stroke-miterlimit:4;stroke-dasharray:none;stroke-opacity:1" id="rect495" width="32" height="48" x="146.506" y="24.5" rx="4" ry="4"/><rect style="fill:#c9c9cb;fill-opacity:1;stroke:#c9c9cb;stroke-width:1.58676;stroke-miterlimit:4;stroke-dasharray:none;stroke-opacity:1" id="rect1415" width="12.875" height="3.714" x="190.8" y="90.537"/><rect style="fill:#c9c9cb;fill-opacity:1;stroke:#c9c9cb;stroke-width:.581849;stroke-miterlimit:4;stroke-dasharray:none;stroke-opacity:1" id="rect1417" width="1.363" height="4.719" x="196.557" y="90.99"/></g></svg>