<svg xmlns="http://www.w3.org/2000/svg" xmlns:svg="http://www.w3.org/2000/svg" id="svg24" width="40" height="40" version="1.1" viewBox="0 0 40 40"><metadata id="metadata30"/><g id="g22" fill="none" fill-rule="evenodd" transform="translate(-10,-10)"><g id="g20"><g id="g18"><path id="path10" fill="#d8d8d8" fill-opacity="0" d="M 0,0 H 60 V 60 H 0 Z"/><g id="g16" fill-rule="nonzero"><path id="path12" fill="#00b45a" d="M 3.933,20.141 V 3.912 H 22.85 V 0.54 H 0.543 v 16.27 c 0,3.266 2.312,5.915 5.326,8.345 C 4.676,23.644 3.933,21.994 3.933,20.141 Z" transform="translate(15,12)"/><path id="path14" fill="#fff" d="M 18.718,7.463 H 7.466 v 16.05 c 0,5.156 5.933,8.756 11.154,12.412 5.23,-3.648 11.154,-7.248 11.154,-12.411 V 7.463 Z m 7.73,16.05 c 0,2.87 -3.873,5.677 -7.812,8.387 -3.93,-2.718 -7.811,-5.516 -7.811,-8.386 V 10.742 h 15.623 v 12.772 z" transform="translate(15,12)"/></g></g></g></g></svg>