<svg xmlns="http://www.w3.org/2000/svg" viewBox="0 0 120 104.99"><defs><style>.cls-1{fill:#313b45}.cls-2{fill:#526168}.cls-3{fill:#fff}.cls-4{fill:#00b45a}</style></defs><title>ledger</title><g id="Design"><rect width="10.92" height=".88" x="59.89" y="51.28" class="cls-1"/><rect width="85.19" height="27.01" x="18.7" y="52.16" class="cls-1"/><path d="M98.64,56.42,49,6.75l-19.1,19.1L79.54,75.52a13.51,13.51,0,0,0,19.1-19.1Z" class="cls-2"/><circle cx="88.58" cy="65.89" r="7.57" class="cls-1"/><path d="M82.81,71.67a8.17,8.17,0,1,1,11.55,0A8.17,8.17,0,0,1,82.81,71.67ZM93.51,61a7,7,0,1,0,0,9.86A7,7,0,0,0,93.51,61Z" class="cls-3"/><rect width="10.8" height=".88" x="30.71" y="51.28" class="cls-1"/><rect width="31.87" height="11.14" x="30.71" y="60.28" class="cls-1"/><path d="M61.87,61v9.7H31.43V61H61.87m.72-.72H30.71V71.42H62.59V60.28Z" class="cls-4"/></g></svg>