<svg xmlns="http://www.w3.org/2000/svg" xmlns:svg="http://www.w3.org/2000/svg" id="Layer_1" data-name="Layer 1" version="1.1" viewBox="0 0 48 48"><metadata id="metadata35"/><defs id="defs16"><style id="style2">.cls-1{fill:none}.cls-2{clip-path:url(#clip-path)}.cls-3{clip-path:url(#clip-path-2)}.cls-5{clip-path:url(#clip-path-3)}</style><clipPath id="clip-path"><polygon id="polygon4" points="25.55 15.77 23.39 15.77 23.39 23.25 15.91 23.25 15.91 25.41 23.39 25.41 23.39 32.89 25.55 32.89 25.55 25.41 33.03 25.41 33.03 23.25 25.55 23.25 25.55 15.77" class="cls-1"/></clipPath><clipPath id="clip-path-2"><rect id="rect7" width="900" height="1948.8" x="-160.32" y="-1060.47" class="cls-1"/></clipPath><clipPath id="clip-path-3"><path id="path10" d="M24.48,41.21A16.88,16.88,0,1,1,41.36,24.33,16.88,16.88,0,0,1,24.48,41.21Zm0-35.88a19,19,0,1,0,19,19A19,19,0,0,0,24.48,5.33Z" class="cls-1"/></clipPath></defs><title id="title18">new</title><g id="g24" class="cls-2" clip-path="url(#clip-path)"><g id="g22" class="cls-3" clip-path="url(#clip-path-2)"><path id="rect20" d="M 3.9200001,3.77 H 45.039999 V 44.889999 H 3.9200001 Z" style="fill:#00b45a"/></g></g><g id="g30" class="cls-5" clip-path="url(#clip-path-3)"><g id="g28" class="cls-3" clip-path="url(#clip-path-2)"><path id="rect26" d="m -6.52,-6.6700001 h 62 V 55.33 h -62 z" style="fill:#00b45a"/></g></g></svg>