<svg xmlns="http://www.w3.org/2000/svg" xmlns:xlink="http://www.w3.org/1999/xlink" id="Layer_1" data-name="Layer 1" viewBox="0 0 48 24"><defs><style>.cls-1{fill:none}.cls-2{fill:#fff}</style><clipPath id="clip-path"><path d="M-139,58.75a4.67,4.67,0,0,1-4.67,4.68,4.67,4.67,0,0,1-4.68-4.68,4.67,4.67,0,0,1,4.68-4.67A4.67,4.67,0,0,1-139,58.75Zm5.91-2-3.09-.48a7.9,7.9,0,0,0-1.56-2.71l1.18-2.91-3.38-2-2,2.42a7.62,7.62,0,0,0-3.49,0l-2-2.42-3.38,2,1.18,2.9a7.92,7.92,0,0,0-1.55,2.7l-3.09.5v3.93l3.09.48a7.87,7.87,0,0,0,1.55,2.71l-1.18,2.9,3.38,2,2-2.42a7.62,7.62,0,0,0,3.49,0l2,2.42,3.38-2-1.18-2.9a7.9,7.9,0,0,0,1.56-2.71l3.09-.49Z" class="cls-1"/></clipPath></defs><title>next</title><polygon points="31.8 4.18 31.01 5.07 37.51 11.38 8.13 11.38 8.13 12.63 37.51 12.63 31.01 18.93 31.8 19.82 39.87 12 31.8 4.18" class="cls-2"/><path d="M2.69,0h24V24h-24Z" class="cls-1"/></svg>