<svg xmlns="http://www.w3.org/2000/svg" xmlns:svg="http://www.w3.org/2000/svg" id="Layer_1" data-name="Layer 1" version="1.1" viewBox="0 0 24 24"><metadata id="metadata444"/><defs id="defs433"><style id="style425">.cls-1{fill:none}.cls-3{fill:#00b45a}</style><clipPath id="clip-path"><rect id="rect427" width="21.97" height="17.42" x="32.77" y="-34.75" class="cls-1"/></clipPath><clipPath id="clip-path-2"><path id="path430" d="M-14.46,58.75a4.67,4.67,0,0,1-4.67,4.68,4.67,4.67,0,0,1-4.67-4.68,4.67,4.67,0,0,1,4.67-4.67A4.67,4.67,0,0,1-14.46,58.75Zm5.91-2-3.09-.48a7.87,7.87,0,0,0-1.55-2.71L-12,50.69l-3.37-2-2,2.42a7.58,7.58,0,0,0-3.48,0l-2-2.42-3.37,2,1.17,2.9a7.92,7.92,0,0,0-1.55,2.7l-3.09.5v3.93l3.09.48a7.87,7.87,0,0,0,1.55,2.71l-1.17,2.9,3.37,2,2-2.42a7.58,7.58,0,0,0,3.48,0l2,2.42,3.37-2-1.17-2.9a7.87,7.87,0,0,0,1.55-2.71l3.09-.49Z" class="cls-1"/></clipPath></defs><title id="title435">security</title><path id="path437" d="M0,0H24V24H0Z" class="cls-1"/><path id="path439" d="M12,1,3,5v6c0,5.55,3.84,10.74,9,12,5.16-1.26,9-6.45,9-12V5Zm0,11h7c-.53,4.12-3.28,7.79-7,8.94V12H5V6.3l7-3.11Z" class="cls-3" style="fill:#fff"/></svg>