<svg xmlns="http://www.w3.org/2000/svg" xmlns:xlink="http://www.w3.org/1999/xlink" id="Layer_1" data-name="Layer 1" viewBox="0 0 24 24"><defs><style>.cls-1{fill:none}.cls-3{fill:#00b45a}</style><clipPath id="clip-path"><rect width="21.97" height="17.42" x="1.01" y="-34.75" class="cls-1"/></clipPath><clipPath id="clip-path-2"><path d="M-46.21,58.75a4.67,4.67,0,0,1-4.67,4.68,4.67,4.67,0,0,1-4.68-4.68,4.67,4.67,0,0,1,4.68-4.67A4.67,4.67,0,0,1-46.21,58.75Zm5.91-2-3.09-.48a7.9,7.9,0,0,0-1.56-2.71l1.18-2.91-3.38-2-2,2.42a7.62,7.62,0,0,0-3.49,0l-2-2.42-3.38,2,1.18,2.9a7.92,7.92,0,0,0-1.55,2.7l-3.09.5v3.93l3.09.48a7.87,7.87,0,0,0,1.55,2.71L-58,66.81l3.38,2,2-2.42a7.62,7.62,0,0,0,3.49,0l2,2.42,3.38-2-1.18-2.9a7.9,7.9,0,0,0,1.56-2.71l3.09-.49Z" class="cls-1"/></clipPath></defs><title>twofactor</title><path d="M0,0H24V24H0Z" class="cls-1"/><path d="M0,0H24V24H0Z" class="cls-1"/><path d="M20,8H17V6.21A5.15,5.15,0,0,0,12.49,1,5,5,0,0,0,7,6V8H4V22H20Zm-8,9a2,2,0,1,1,2-2A2,2,0,0,1,12,17ZM9,8V6a3,3,0,0,1,6,0V8Z" class="cls-3"/></svg>