<svg xmlns="http://www.w3.org/2000/svg" xmlns:svg="http://www.w3.org/2000/svg" id="svg1563" width="60" height="60" version="1.1" viewBox="0 0 60 60"><metadata id="metadata1569"/><path id="path7367" d="M 11.09375 7.5996094 C 9.16315 7.5996094 7.5996094 9.16315 7.5996094 11.09375 L 7.5996094 43.304688 C 7.5996094 45.235287 9.16315 46.800781 11.09375 46.800781 L 27.019531 46.800781 C 26.143545 44.836741 26.459753 42.476794 27.929688 40.773438 A 0.78342278 0.78342278 0 0 1 28.09375 40.513672 L 29.742188 38.808594 C 31.893667 36.575545 35.643441 36.575541 37.794922 38.808594 L 39.689453 40.775391 L 46.800781 33.396484 L 46.800781 11.09375 C 46.800781 9.16315 45.235287 7.5996094 43.304688 7.5996094 L 11.09375 7.5996094 z M 15.898438 17.757812 L 27.03125 17.757812 L 27.03125 20.511719 L 22.978516 20.511719 L 22.978516 36.574219 L 19.947266 36.574219 L 19.947266 20.511719 L 15.898438 20.511719 L 15.898438 17.757812 z M 27.660156 22.939453 L 30.714844 22.939453 L 30.714844 22.941406 L 30.716797 22.941406 L 30.71875 22.941406 L 31.607422 25.095703 L 32.494141 27.248047 L 34.269531 22.939453 L 37.326172 22.939453 L 37.326172 22.941406 L 37.328125 22.941406 L 34.0625 29.59375 L 35.003906 31.431641 L 35.005859 31.433594 L 37.642578 36.576172 L 34.560547 36.576172 L 33.25 33.685547 L 33.248047 33.683594 L 33.248047 33.681641 L 32.964844 33.060547 L 32.494141 32.023438 L 31.740234 33.685547 L 30.429688 36.576172 L 27.347656 36.576172 L 27.349609 36.574219 L 27.345703 36.574219 L 30.925781 29.591797 L 27.662109 22.941406 L 27.660156 22.939453 z" style="fill:#fff;stroke-width:1.4"/><path id="path1551" fill="#d8d8d8" fill-opacity="0" d="M -12,-12 H 72 V 72 H -12 Z" style="fill-rule:evenodd;stroke-width:1.4"/><path id="path867" d="m 51.431641,35.5 c -0.297926,0 -0.594915,0.117545 -0.822266,0.353516 L 39.689453,47.185547 34.591797,41.894531 c -0.454701,-0.471941 -1.191783,-0.471941 -1.646485,0 l -1.648437,1.708985 c -0.454701,0.471941 -0.454701,1.23812 0,1.708984 l 7.568359,7.853516 c 0.454701,0.470863 1.193737,0.470863 1.648438,0 L 53.902344,39.271484 c 0.453624,-0.471941 0.453624,-1.237043 0,-1.708984 L 52.255859,35.853516 C 52.028508,35.617545 51.729567,35.5 51.431641,35.5 Z" style="fill:#fff;fill-rule:evenodd;stroke-width:1.07749"/></svg>